<svg width="1496" height="877" fill="none"
    xmlns="http://www.w3.org/2000/svg">
    <g clip-path="url(#a)">
        <path transform="rotate(-180 748 438.5)" fill="url(#b)" d="M0 0h1496v877H0z"/>
        <path d="M1872.66 802.284c-73.86 32.086-147.16 67.91-219.91 107.473-72.75 39.562-190.14 58.253-352.17 56.072-162.03-2.181-306.981-16.822-434.844-43.923-127.863-27.102-206.676-61.836-236.437-104.202-29.761-42.366-5.511-79.903 72.75-112.612 78.261-32.709 163.135-61.835 254.624-87.38 91.487-25.544 185.177-21.806 281.077 11.215 95.9 33.02 165.34 54.826 208.33 65.418 42.99 10.591 143.29 23.208 300.92 37.849 157.62 14.641 199.51 38.005 125.66 70.09z" fill="url(#c)"/>
        <path d="M755.934 775.456c-269.279-21.033-219.109-205.528-513.227-296.384-294.119-90.857-463.949 122.976-639.96 120.785-140.741-1.903-302.888-110.157-366.493-163.992L-770 911.204l1919.72 23.899c-41.86-47.821-170.071-142.052-393.786-159.647z" fill="url(#d)"/>
        <g opacity=".6">
            <path d="M303.718 330.041h-2.555v-2.575h-1.774v2.575h-2.555v1.775h2.555v2.557h1.774v-2.557h2.555v-1.775zM663.137 297.325h-2.573v-2.574h-1.774v2.574h-2.555v1.776h2.555v2.556h1.774v-2.556h2.573v-1.776zM1010.85 249.191h-2.56v-2.557h-1.77v2.557h-2.57v1.776h2.57v2.574h1.77v-2.574h2.56v-1.776zM160.848 289.191h-2.555v-2.557h-1.775v2.557h-2.572v1.776h2.572v2.574h1.775v-2.574h2.555v-1.776zM1243.32 373.387h-2.56v-2.575h-1.77v2.575h-2.58v1.775h2.58v2.557h1.77v-2.557h2.56v-1.775zM1272.61 114.68h-2.55v-2.557h-1.78v2.557h-2.57v1.776h2.57v2.574h1.78v-2.574h2.55v-1.776zM1341.15 122.927h-1.97v-1.957h-1.35v1.957h-1.96v1.359h1.96v1.957h1.35v-1.957h1.97v-1.359zM635.546 76.49a1.153 1.153 0 1 0 0-2.308 1.153 1.153 0 0 0 0 2.307zM563.154 193.174a1.153 1.153 0 1 0 0-2.306 1.153 1.153 0 0 0 0 2.306zM263.512 234.928a1.154 1.154 0 1 0 0-2.309 1.154 1.154 0 0 0 0 2.309zM233.651 364.84a1.154 1.154 0 1 0 0-2.308 1.154 1.154 0 0 0 0 2.308zM350.259 308.504a1.154 1.154 0 1 0-.001-2.307 1.154 1.154 0 0 0 .001 2.307zM996.298 330.562a1.154 1.154 0 1 0 0-2.309 1.154 1.154 0 0 0 0 2.309zM146.298 370.562a1.154 1.154 0 1 0 0-2.309 1.154 1.154 0 0 0 0 2.309zM951.497 243.19a1.153 1.153 0 1 0 0-2.306 1.153 1.153 0 0 0 0 2.306zM101.497 283.19a1.153 1.153 0 1 0 0-2.306 1.153 1.153 0 0 0 0 2.306zM914.733 117.876a1.154 1.154 0 1 0-.001-2.307 1.154 1.154 0 0 0 .001 2.307zM1129 309.877a1.155 1.155 0 1 0-1.16-1.154c0 .637.52 1.154 1.16 1.154zM1227.81 268.49c.64 0 1.15-.516 1.15-1.154a1.15 1.15 0 1 0-2.3 0c0 .638.51 1.154 1.15 1.154zM1214.59 408.63c.64 0 1.15-.516 1.15-1.154a1.15 1.15 0 1 0-2.3 0c0 .638.51 1.154 1.15 1.154zM1351.89 201.803a1.155 1.155 0 0 0 0-2.308c-.64 0-1.16.517-1.16 1.154 0 .638.52 1.154 1.16 1.154zM1367.39 140.247c.64 0 1.16-.517 1.16-1.154a1.155 1.155 0 1 0-1.16 1.154zM1237.57 142.555c.63 0 1.15-.517 1.15-1.154a1.156 1.156 0 0 0-2.31 0c0 .637.52 1.154 1.16 1.154zM1472.64 177.603c.64 0 1.16-.516 1.16-1.154a1.156 1.156 0 0 0-2.31 0c0 .638.52 1.154 1.15 1.154zM1241.01 21.307c.64 0 1.15-.516 1.15-1.154a1.149 1.149 0 1 0-2.3 0c0 .638.51 1.154 1.15 1.154z" fill="#fff"/>
            <path d="M68.46 322.999 51 352.881h34.759l-17.3-29.882zm-7.098 24.023 7.097-11.932 7.097 11.878-14.194.054z" fill="#FF5000"/>
            <path d="m277.813 381.459-24.609 24.359 33.587 8.878-8.978-33.237zm-13.165 21.305 9.989-9.676 3.815 13.316-13.804-3.64z" fill="#AEB1C2"/>
            <path d="m1099.46 243.19-9.14 33.397 33.55-9.037-24.41-24.36zm-.73 25.07 3.81-13.37 9.96 9.606-13.77 3.764zM432.627 232.999 408 257.341l33.499 8.966-8.872-33.308zm-13.147 21.306 9.989-9.676 3.815 13.316-13.804-3.64z" fill="#fff"/>
            <path d="m903.264 56.171 3.787 31.932 25.68-19.432-29.467-12.5zm8.111 21.788-1.391-12.84 11.933 4.802-10.542 8.038z" fill="#A573F4"/>
            <path d="m1163.27 193.3 2.47 20.825 16.74-12.672-19.21-8.153zm5.29 14.21-.91-8.374 7.78 3.131-6.87 5.243zM589.065 49l2.471 20.825 16.747-12.673L589.065 49zm5.291 14.21-.908-8.374 7.783 3.13-6.875 5.243z" fill="#FF7654"/>
            <path d="m281.606 100.369 3.129 26.379 21.214-16.052-24.343-10.327zm6.701 17.999-1.15-10.606 9.858 3.966-8.708 6.64z" fill="#A573F4"/>
            <path opacity=".1" d="m1076.67 124.729-3.46 4.279-3.26-12.588 6.72 8.309z" fill="#662D91"/>
            <path d="M849.811 468.819a1.154 1.154 0 1 0 0-2.309 1.154 1.154 0 0 0 0 2.309z" fill="#fff"/>
            <path opacity=".3" d="M160.031 154.59a39.749 39.749 0 0 1 22.091 6.706 39.786 39.786 0 0 1 14.646 17.86 39.814 39.814 0 0 1-8.627 43.364 39.741 39.741 0 0 1-43.339 8.613 39.752 39.752 0 0 1-17.841-14.662 39.81 39.81 0 0 1-6.693-22.11 39.843 39.843 0 0 1 11.663-28.113 39.787 39.787 0 0 1 28.1-11.658zm0-2.042a41.778 41.778 0 0 0-23.226 7.051 41.815 41.815 0 0 0-15.396 18.776 41.843 41.843 0 0 0 9.069 45.589 41.813 41.813 0 0 0 21.408 11.445 41.808 41.808 0 0 0 24.154-2.388 41.806 41.806 0 0 0 18.756-15.415 41.844 41.844 0 0 0 7.037-23.245 41.829 41.829 0 0 0-12.244-29.572 41.766 41.766 0 0 0-13.563-9.062 41.765 41.765 0 0 0-15.995-3.179z" fill="#E7EBEE"/>
            <path d="m820.088 331.889-.142.053 2.378 5.877-2.236-5.93z" fill="#1652F0"/>
        </g>
        <g opacity=".6">
            <path d="M1118.17 677.778h2.55v2.574h1.78v-2.574h2.55v-1.776h-2.55v-2.556h-1.78v2.556h-2.55v1.776zM758.748 710.493h2.573v2.575h1.774v-2.575h2.555v-1.775h-2.555v-2.557h-1.774v2.557h-2.573v1.775zM411.037 758.627h2.555v2.557h1.774v-2.557h2.573v-1.775h-2.573v-2.575h-1.774v2.575h-2.555v1.775zM1261.04 718.627h2.55v2.557h1.78v-2.557h2.57v-1.775h-2.57v-2.575h-1.78v2.575h-2.55v1.775zM178.568 634.431h2.555v2.575h1.775v-2.575h2.572v-1.775h-2.572v-2.557h-1.775v2.557h-2.555v1.775zM858.731 814.644a1.154 1.154 0 1 0 0 2.309 1.154 1.154 0 0 0 0-2.309zM1158.37 772.891a1.155 1.155 0 0 0 0 2.308c.64 0 1.16-.517 1.16-1.154 0-.638-.52-1.154-1.16-1.154zM1188.23 642.978c-.63 0-1.15.517-1.15 1.154a1.156 1.156 0 0 0 2.31 0c0-.637-.52-1.154-1.16-1.154zM1071.63 699.314c-.64 0-1.16.517-1.16 1.155a1.156 1.156 0 1 0 1.16-1.155zM425.586 677.256a1.154 1.154 0 1 0 .001 2.307 1.154 1.154 0 0 0-.001-2.307zM1275.59 637.256c-.64 0-1.16.517-1.16 1.154a1.155 1.155 0 1 0 1.16-1.154zM470.388 764.628a1.154 1.154 0 1 0 .001 2.307 1.154 1.154 0 0 0-.001-2.307zM1320.39 724.628c-.64 0-1.16.517-1.16 1.154 0 .637.52 1.154 1.16 1.154.64 0 1.15-.517 1.15-1.154a1.15 1.15 0 0 0-1.15-1.154zM292.887 697.941a1.154 1.154 0 1 0 .002 2.308 1.154 1.154 0 0 0-.002-2.308zM194.075 739.328a1.154 1.154 0 1 0 .001 2.307 1.154 1.154 0 0 0-.001-2.307zM207.295 599.188a1.153 1.153 0 1 0 0 2.306 1.153 1.153 0 0 0 0-2.306zM69.999 806.015a1.153 1.153 0 1 0 0 2.306 1.153 1.153 0 0 0 0-2.306zM54.492 867.571a1.154 1.154 0 1 0 0 2.307 1.154 1.154 0 0 0 0-2.307zM184.317 865.263a1.154 1.154 0 1 0 .001 2.307 1.154 1.154 0 0 0-.001-2.307z" fill="#fff"/>
            <path d="m1353.43 684.819 17.45-29.881h-34.75l17.3 29.881zm7.09-24.022-7.09 11.931-7.1-11.878 14.19-.053z" fill="#FF5000"/>
            <path d="m1144.07 626.36 24.61-24.36-33.59-8.877 8.98 33.237zm13.17-21.306-9.99 9.676-3.82-13.316 13.81 3.64z" fill="#AEB1C2"/>
            <path d="m322.429 764.628 9.138-33.397-33.552 9.038 24.414 24.359zm.728-25.07-3.815 13.37-9.954-9.606 13.769-3.764zM989.257 774.819l24.623-24.342-33.494-8.966 8.871 33.308zm13.153-21.306-9.994 9.677-3.815-13.316 13.809 3.639z" fill="#fff"/>
            <path d="m258.619 814.518-2.47-20.825-16.748 12.673 19.218 8.152zm-5.29-14.21.908 8.374-7.783-3.131 6.875-5.243z" fill="#FF7654"/>
            <path d="m1140.28 907.449-3.13-26.379-21.21 16.053 24.34 10.326zm-6.7-17.999 1.15 10.607-9.86-3.966 8.71-6.641z" fill="#A573F4"/>
            <path d="M572.073 538.999a1.154 1.154 0 1 0 .001 2.307 1.154 1.154 0 0 0-.001-2.307z" fill="#fff"/>
            <path opacity=".3" d="M1261.85 853.228c-7.86 0-15.55-2.335-22.09-6.706a39.78 39.78 0 0 1-14.64-17.86 39.77 39.77 0 0 1-2.26-22.992 39.766 39.766 0 0 1 10.88-20.372 39.791 39.791 0 0 1 20.37-10.885 39.716 39.716 0 0 1 22.97 2.272 39.692 39.692 0 0 1 17.84 14.662 39.817 39.817 0 0 1 6.7 22.11 39.843 39.843 0 0 1-11.67 28.113 39.776 39.776 0 0 1-28.1 11.658zm0 2.042c8.27 0 16.36-2.454 23.23-7.051a41.852 41.852 0 0 0 15.4-18.775 41.842 41.842 0 0 0 2.37-24.172 41.787 41.787 0 0 0-11.44-21.417A41.812 41.812 0 0 0 1270 772.41a41.814 41.814 0 0 0-24.16 2.388 41.826 41.826 0 0 0-18.75 15.415 41.889 41.889 0 0 0-3.86 39.25 41.863 41.863 0 0 0 9.07 13.567 41.78 41.78 0 0 0 29.55 12.24z" fill="#E7EBEE"/>
            <path d="m601.797 675.93.142-.054-2.378-5.876 2.236 5.93z" fill="#1652F0"/>
        </g>
    </g>
    <defs>
        <linearGradient id="b" x1="1487.5" y1="392.293" x2="1033.93" y2="-321.371" gradientUnits="userSpaceOnUse">
            <stop stop-color="#3900B8"/>
            <stop offset="1" stop-color="#B2226D"/>
        </linearGradient>
        <linearGradient id="c" x1="754.035" y1="1035.95" x2="1011.84" y2="565.382" gradientUnits="userSpaceOnUse">
            <stop stop-color="#453D98"/>
            <stop offset="1" stop-color="#C8267A"/>
        </linearGradient>
        <linearGradient id="d" x1="-471.425" y1="775.254" x2="1114.71" y2="1253.86" gradientUnits="userSpaceOnUse">
            <stop stop-color="#522CBE"/>
            <stop offset=".984" stop-color="#C8267A"/>
        </linearGradient>
        <clipPath id="a">
            <path fill="#fff" transform="rotate(-180 748 438.5)" d="M0 0h1496v877H0z"/>
        </clipPath>
    </defs>
</svg>