<svg width="189" height="35" viewBox="0 0 189 35" fill="none" xmlns="http://www.w3.org/2000/svg">
<path fill-rule="evenodd" clip-rule="evenodd" d="M38.2923 18.9665V6.94824H39.4447C40.3836 6.94824 41.1447 7.70755 41.1447 8.6442V13.9878C42.9915 12.344 44.5621 11.686 46.6554 11.6438C50.6702 11.5618 54.1548 14.5366 54.4858 18.5294C54.8816 23.2995 51.4044 26.89 46.8744 26.89C41.9013 26.89 38.2923 23.8135 38.2923 18.9665ZM41.0974 19.91C41.3787 22.3931 43.7557 24.4442 46.2621 24.4839C49.5277 24.5336 51.7529 22.4105 51.7529 19.2694C51.7529 16.1283 49.5775 14.0549 46.404 14.0549C43.0115 14.0474 40.7116 16.5057 41.0974 19.91V19.91Z" fill="white"/>
<path fill-rule="evenodd" clip-rule="evenodd" d="M59.2448 11.9441V14.0846C61.0394 12.0981 62.1022 11.5642 64.203 11.5642C64.814 11.5649 65.4241 11.6139 66.0274 11.7107V14.5539C65.3836 14.3773 64.7188 14.2888 64.0511 14.2907C62.5303 14.2907 61.2535 14.7873 60.3176 15.7259C59.4962 16.5478 59.2523 17.1909 59.2523 18.4821V26.3983H56.2953V11.9441H59.2448Z" fill="white"/>
<path fill-rule="evenodd" clip-rule="evenodd" d="M66.7293 16.7241C66.8811 15.3162 67.1549 14.5539 67.7622 13.8213C68.9793 12.3315 71.1697 11.5642 74.271 11.5642C76.7351 11.5642 78.5297 11.9466 79.7767 12.766C80.8121 13.439 81.2377 14.4372 81.2377 16.1952V22.614C81.2377 24.0219 81.6036 24.5186 82.6067 24.4912C82.8308 24.4834 83.0543 24.4635 83.2762 24.4316V26.366C82.7776 26.536 82.2523 26.6151 81.7256 26.5994C79.8713 26.5994 79.02 26.0432 78.4426 24.4292C76.6181 26.1003 74.7315 26.803 72.0259 26.803C68.4069 26.803 66.1867 25.1617 66.1867 22.4923C66.1708 20.9702 67.0684 19.5859 68.4666 18.9763C69.5618 18.507 70.2313 18.3605 73.3625 18.0377C76.0382 17.7745 76.4962 17.7149 77.2553 17.479C78.0767 17.2158 78.4426 16.7762 78.4426 16.0437C78.4426 14.4893 77.1358 13.7866 74.3979 13.7866C71.8094 13.7866 70.4752 14.2981 69.9401 15.6042C69.675 16.2721 69.0298 16.7124 68.3098 16.7166L66.7293 16.7241ZM78.4276 19.1873C76.5517 19.7316 74.6253 20.0852 72.678 20.2426C70.0322 20.5058 69.2108 21.0049 69.2108 22.3235C69.2108 23.7885 70.4279 24.5583 72.8298 24.5583C74.8061 24.5583 76.297 24.0616 77.3623 23.0932C78.2136 22.3011 78.4276 21.7449 78.4276 20.3618V19.1873Z" fill="white"/>
<path fill-rule="evenodd" clip-rule="evenodd" d="M90.4148 26.396H89.6532C88.9822 26.4002 88.3684 26.0197 88.0751 25.4177L81.6958 11.9443H83.4679C84.5006 11.9361 85.4408 12.537 85.8649 13.4764L90.1211 23.1605L94.5192 13.4392C94.9495 12.5146 95.8819 11.9262 96.9037 11.9344H98.5141L91.9854 25.4326C91.689 26.0264 91.0797 26.4001 90.4148 26.396V26.396Z" fill="white"/>
<path fill-rule="evenodd" clip-rule="evenodd" d="M100.513 20.0067C100.816 22.7928 103.002 24.521 106.26 24.521C108.109 24.521 109.496 23.9722 110.354 22.8772C110.855 22.2492 111.616 21.8835 112.42 21.8839H114.135C112.642 25.1666 109.969 26.7806 105.984 26.7806C101.006 26.7806 97.6504 23.7612 97.6504 19.2469C97.6504 14.7326 101.088 11.5667 106.046 11.5667C109.633 11.5667 112.517 13.1782 113.68 15.8773C114.197 17.1189 114.409 18.2214 114.409 20.0092L100.513 20.0067ZM111.4 17.7719C110.73 15.2218 108.754 13.7841 106.016 13.7841C103.278 13.7841 101.302 15.2218 100.602 17.7719H111.4Z" fill="white"/>
<path fill-rule="evenodd" clip-rule="evenodd" d="M29.144 8.37878L29.9641 6.36814C29.9641 6.36814 28.9204 5.25112 27.653 3.98516C26.3856 2.7192 23.7017 3.46388 23.7017 3.46388L20.6451 0H15.2773H9.90958L6.85294 3.46388C6.85294 3.46388 4.16906 2.7192 2.90168 3.98516C1.63429 5.25112 0.590562 6.36814 0.590562 6.36814L1.41063 8.37878L0.366905 11.3575C0.366905 11.3575 3.43659 22.9712 3.7963 24.3894C4.50455 27.182 4.98914 28.2618 7.00204 29.6767C9.01495 31.0915 12.668 33.549 13.2644 33.9213C13.8608 34.2937 14.6064 34.9279 15.2773 34.9279C15.9483 34.9279 16.6938 34.2937 17.2902 33.9213C17.8867 33.549 21.5397 31.0915 23.5526 29.6767C25.5655 28.2618 26.0501 27.182 26.7584 24.3894C27.118 22.9712 30.1878 11.3575 30.1878 11.3575L29.144 8.37878Z" fill="url(#paint0_linear_845_13452)"/>
<path fill-rule="evenodd" clip-rule="evenodd" d="M19.0795 6.29373C19.5268 6.29373 22.8444 5.66075 22.8444 5.66075C22.8444 5.66075 26.7759 10.4081 26.7759 11.4227C26.7759 12.2616 26.4379 12.59 26.0397 12.9767C25.9563 13.0577 25.8702 13.1412 25.7841 13.2326L22.8362 16.3594C22.807 16.3904 22.7744 16.4231 22.74 16.4577C22.4457 16.7532 22.0124 17.1884 22.3182 17.9111C22.3386 17.9594 22.3596 18.0085 22.381 18.0584C22.7162 18.8414 23.13 19.8081 22.6033 20.7877C22.0429 21.8296 21.0831 22.5251 20.468 22.4101C19.853 22.2951 18.4085 21.5411 17.8773 21.1967C17.3461 20.8522 15.6626 19.4653 15.6626 18.9347C15.6626 18.4921 16.8734 17.7559 17.4616 17.3981C17.5786 17.327 17.671 17.2708 17.7244 17.2349C17.7851 17.194 17.8866 17.131 18.0116 17.0534C18.5486 16.7202 19.5181 16.1185 19.5425 15.8518C19.5724 15.5229 19.561 15.4264 19.1282 14.6138C19.0362 14.441 18.9285 14.2559 18.8172 14.0647C18.4051 13.3564 17.9437 12.5633 18.0458 11.9952C18.1611 11.3539 19.1671 10.9862 20.0193 10.6748C20.1258 10.6359 20.2298 10.5978 20.3295 10.5602C20.5782 10.4664 20.8907 10.3495 21.2172 10.2273C22.0679 9.90903 23.0132 9.55537 23.169 9.48357C23.3849 9.38416 23.3291 9.28951 22.6755 9.22762C22.589 9.21944 22.4815 9.20802 22.3581 9.19493C21.5491 9.10905 20.0569 8.95065 19.3314 9.15264C19.1887 9.19236 19.0288 9.23563 18.861 9.281C18.046 9.50146 17.0471 9.77164 16.9512 9.9274C16.9344 9.95465 16.9179 9.97808 16.9023 10.0002C16.8105 10.1306 16.7506 10.2155 16.8522 10.7694C16.8825 10.9344 16.9447 11.2588 17.0216 11.6599C17.2467 12.8345 17.5979 14.6666 17.6421 15.0782C17.6483 15.1358 17.6551 15.1914 17.6617 15.2449C17.718 15.7041 17.7555 16.0096 17.2216 16.1316C17.1772 16.1417 17.1305 16.1524 17.082 16.1635C16.4796 16.3016 15.5964 16.5041 15.2773 16.5041C14.9581 16.5041 14.0743 16.3014 13.4719 16.1634C13.4237 16.1523 13.3772 16.1417 13.333 16.1316C12.7991 16.0096 12.8366 15.7041 12.8929 15.2449C12.8994 15.1914 12.9063 15.1358 12.9125 15.0782C12.9568 14.666 13.3089 12.8294 13.534 11.655C13.6105 11.2561 13.6723 10.9337 13.7024 10.7694C13.8039 10.2156 13.7441 10.1306 13.6523 10.0002C13.6368 9.9781 13.6203 9.95466 13.6035 9.9274C13.5075 9.77165 12.5088 9.5015 11.6937 9.28104C11.5259 9.23565 11.3659 9.19238 11.2232 9.15264C10.4978 8.95066 9.0057 9.10903 8.19657 9.19492C8.07313 9.20802 7.96558 9.21943 7.87908 9.22762C7.22555 9.28951 7.16979 9.38416 7.38554 9.48357C7.54143 9.55535 8.48624 9.90885 9.33684 10.2271C9.66352 10.3493 9.97629 10.4664 10.2252 10.5602C10.3249 10.5978 10.429 10.6359 10.5355 10.6749C11.3876 10.9863 12.3935 11.354 12.5088 11.9952C12.611 12.5632 12.1496 13.3562 11.7376 14.0644C11.6262 14.2557 11.5185 14.4409 11.4264 14.6138C10.9936 15.4264 10.9822 15.5229 11.0122 15.8518C11.0365 16.1185 12.0057 16.72 12.5427 17.0532C12.6678 17.1309 12.7695 17.194 12.8302 17.2349C12.8835 17.2708 12.9758 17.3269 13.0927 17.398C13.6809 17.7556 14.892 18.4921 14.892 18.9347C14.892 19.4653 13.2085 20.8522 12.6773 21.1967C12.1461 21.5411 10.7017 22.2951 10.0866 22.4101C9.47158 22.5251 8.51172 21.8296 7.95139 20.7877C7.4247 19.8082 7.8384 18.8416 8.17354 18.0586C8.1949 18.0087 8.21595 17.9595 8.2364 17.9111C8.54218 17.1883 8.1088 16.7531 7.81451 16.4576C7.78011 16.423 7.74761 16.3904 7.71842 16.3594L4.77048 13.2326C4.68437 13.1413 4.59834 13.0577 4.51496 12.9767C4.11678 12.59 3.77871 12.2617 3.77871 11.4227C3.77871 10.4081 7.71029 5.66075 7.71029 5.66075C7.71029 5.66075 11.0279 6.29373 11.4752 6.29373C11.8321 6.29373 12.5213 6.05665 13.2398 5.8095C13.4217 5.74692 13.6055 5.6837 13.7863 5.62352C14.6809 5.32565 15.2773 5.32349 15.2773 5.32349C15.2773 5.32349 15.8737 5.32565 16.7684 5.62352C16.9491 5.6837 17.1329 5.74692 17.3148 5.8095C18.0333 6.05665 18.7225 6.29373 19.0795 6.29373ZM18.5101 23.0856C19.2114 23.4466 19.7089 23.7027 19.897 23.8203C20.1403 23.9725 19.9919 24.2594 19.7703 24.4159C19.5486 24.5725 16.5694 26.8768 16.2803 27.1315C16.2433 27.1641 16.204 27.1994 16.1632 27.2362C15.8846 27.487 15.5292 27.8069 15.2773 27.8069C15.0253 27.8069 14.6697 27.4867 14.3911 27.2359C14.3504 27.1992 14.3113 27.164 14.2744 27.1315C13.9852 26.8768 11.0061 24.5725 10.7844 24.4159C10.5626 24.2594 10.4143 23.9725 10.6576 23.8203C10.8459 23.7026 11.3438 23.4463 12.0458 23.085C12.2516 22.9791 12.4749 22.8641 12.7131 22.741C13.7636 22.198 15.073 21.7363 15.2773 21.7363C15.4817 21.7363 16.7909 22.198 17.8416 22.741C18.0803 22.8644 18.304 22.9795 18.5101 23.0856Z" fill="white"/>
<path fill-rule="evenodd" clip-rule="evenodd" d="M23.7017 3.46388L20.6451 0H15.2773H9.90958L6.85294 3.46388C6.85294 3.46388 4.16907 2.7192 2.90168 3.98516C2.90168 3.98516 6.48018 3.66249 7.71029 5.66069C7.71029 5.66069 11.0279 6.29367 11.4752 6.29367C11.9225 6.29367 12.8917 5.92133 13.7863 5.62346C14.6809 5.32559 15.2773 5.32343 15.2773 5.32343C15.2773 5.32343 15.8737 5.32559 16.7684 5.62346C17.663 5.92133 18.6322 6.29367 19.0795 6.29367C19.5268 6.29367 22.8444 5.66069 22.8444 5.66069C24.0745 3.66249 27.653 3.98516 27.653 3.98516C26.3856 2.7192 23.7017 3.46388 23.7017 3.46388" fill="url(#paint1_linear_845_13452)"/>
<g filter="url(#filter0_dd_845_13452)">
<path d="M122.625 9C122.625 7.89543 123.52 7 124.625 7H184.625C185.73 7 186.625 7.89543 186.625 9V26C186.625 27.1046 185.73 28 184.625 28H124.625C123.52 28 122.625 27.1046 122.625 26V9Z" fill="#EEEFF1"/>
<path d="M130.475 22.126C129.868 22.126 129.322 22.0187 128.837 21.804C128.361 21.58 127.983 21.2813 127.703 20.908C127.423 20.5253 127.274 20.1007 127.255 19.634H128.907C128.935 19.9607 129.089 20.236 129.369 20.46C129.658 20.6747 130.018 20.782 130.447 20.782C130.895 20.782 131.24 20.698 131.483 20.53C131.735 20.3527 131.861 20.1287 131.861 19.858C131.861 19.5687 131.721 19.354 131.441 19.214C131.17 19.074 130.736 18.92 130.139 18.752C129.56 18.5933 129.089 18.4393 128.725 18.29C128.361 18.1407 128.044 17.912 127.773 17.604C127.512 17.296 127.381 16.89 127.381 16.386C127.381 15.9753 127.502 15.602 127.745 15.266C127.988 14.9207 128.333 14.65 128.781 14.454C129.238 14.258 129.761 14.16 130.349 14.16C131.226 14.16 131.931 14.384 132.463 14.832C133.004 15.2707 133.294 15.8727 133.331 16.638H131.735C131.707 16.2927 131.567 16.0173 131.315 15.812C131.063 15.6067 130.722 15.504 130.293 15.504C129.873 15.504 129.551 15.5833 129.327 15.742C129.103 15.9007 128.991 16.1107 128.991 16.372C128.991 16.5773 129.066 16.75 129.215 16.89C129.364 17.03 129.546 17.142 129.761 17.226C129.976 17.3007 130.293 17.3987 130.713 17.52C131.273 17.6693 131.73 17.8233 132.085 17.982C132.449 18.1313 132.762 18.3553 133.023 18.654C133.284 18.9527 133.42 19.3493 133.429 19.844C133.429 20.2827 133.308 20.6747 133.065 21.02C132.822 21.3653 132.477 21.636 132.029 21.832C131.59 22.028 131.072 22.126 130.475 22.126ZM137.296 15.588V19.858C137.296 20.1473 137.361 20.3573 137.492 20.488C137.632 20.6093 137.865 20.67 138.192 20.67H139.172V22H137.912C137.193 22 136.642 21.832 136.26 21.496C135.877 21.16 135.686 20.614 135.686 19.858V15.588H134.776V14.286H135.686V12.368H137.296V14.286H139.172V15.588H137.296ZM140.391 18.108C140.391 17.3333 140.549 16.6473 140.867 16.05C141.193 15.4527 141.632 14.9907 142.183 14.664C142.743 14.328 143.359 14.16 144.031 14.16C144.637 14.16 145.165 14.2813 145.613 14.524C146.07 14.7573 146.434 15.0513 146.705 15.406V14.286H148.315V22H146.705V20.852C146.434 21.216 146.065 21.5193 145.599 21.762C145.132 22.0047 144.6 22.126 144.003 22.126C143.34 22.126 142.733 21.958 142.183 21.622C141.632 21.2767 141.193 20.8007 140.867 20.194C140.549 19.578 140.391 18.8827 140.391 18.108ZM146.705 18.136C146.705 17.604 146.593 17.142 146.369 16.75C146.154 16.358 145.869 16.0593 145.515 15.854C145.16 15.6487 144.777 15.546 144.367 15.546C143.956 15.546 143.573 15.6487 143.219 15.854C142.864 16.05 142.575 16.344 142.351 16.736C142.136 17.1187 142.029 17.576 142.029 18.108C142.029 18.64 142.136 19.1067 142.351 19.508C142.575 19.9093 142.864 20.2173 143.219 20.432C143.583 20.6373 143.965 20.74 144.367 20.74C144.777 20.74 145.16 20.6373 145.515 20.432C145.869 20.2267 146.154 19.928 146.369 19.536C146.593 19.1347 146.705 18.668 146.705 18.136ZM153.799 14.16C154.396 14.16 154.923 14.2813 155.381 14.524C155.847 14.7573 156.211 15.0513 156.473 15.406V14.286H158.083V22.126C158.083 22.8353 157.933 23.4653 157.635 24.016C157.336 24.576 156.902 25.0147 156.333 25.332C155.773 25.6493 155.101 25.808 154.317 25.808C153.271 25.808 152.403 25.5607 151.713 25.066C151.022 24.5807 150.63 23.918 150.537 23.078H152.119C152.24 23.4793 152.497 23.8013 152.889 24.044C153.29 24.296 153.766 24.422 154.317 24.422C154.961 24.422 155.479 24.226 155.871 23.834C156.272 23.442 156.473 22.8727 156.473 22.126V20.838C156.202 21.202 155.833 21.51 155.367 21.762C154.909 22.0047 154.387 22.126 153.799 22.126C153.127 22.126 152.511 21.958 151.951 21.622C151.4 21.2767 150.961 20.8007 150.635 20.194C150.317 19.578 150.159 18.8827 150.159 18.108C150.159 17.3333 150.317 16.6473 150.635 16.05C150.961 15.4527 151.4 14.9907 151.951 14.664C152.511 14.328 153.127 14.16 153.799 14.16ZM156.473 18.136C156.473 17.604 156.361 17.142 156.137 16.75C155.922 16.358 155.637 16.0593 155.283 15.854C154.928 15.6487 154.545 15.546 154.135 15.546C153.724 15.546 153.341 15.6487 152.987 15.854C152.632 16.05 152.343 16.344 152.119 16.736C151.904 17.1187 151.797 17.576 151.797 18.108C151.797 18.64 151.904 19.1067 152.119 19.508C152.343 19.9093 152.632 20.2173 152.987 20.432C153.351 20.6373 153.733 20.74 154.135 20.74C154.545 20.74 154.928 20.6373 155.283 20.432C155.637 20.2267 155.922 19.928 156.137 19.536C156.361 19.1347 156.473 18.668 156.473 18.136ZM161.271 13.264C160.982 13.264 160.739 13.166 160.543 12.97C160.347 12.774 160.249 12.5313 160.249 12.242C160.249 11.9527 160.347 11.71 160.543 11.514C160.739 11.318 160.982 11.22 161.271 11.22C161.551 11.22 161.789 11.318 161.985 11.514C162.181 11.71 162.279 11.9527 162.279 12.242C162.279 12.5313 162.181 12.774 161.985 12.97C161.789 13.166 161.551 13.264 161.271 13.264ZM162.055 14.286V22H160.459V14.286H162.055ZM168.322 14.16C168.929 14.16 169.47 14.286 169.946 14.538C170.432 14.79 170.81 15.1633 171.08 15.658C171.351 16.1527 171.486 16.75 171.486 17.45V22H169.904V17.688C169.904 16.9973 169.732 16.47 169.386 16.106C169.041 15.7327 168.57 15.546 167.972 15.546C167.375 15.546 166.899 15.7327 166.544 16.106C166.199 16.47 166.026 16.9973 166.026 17.688V22H164.43V14.286H166.026V15.168C166.288 14.8507 166.619 14.6033 167.02 14.426C167.431 14.2487 167.865 14.16 168.322 14.16ZM176.91 14.16C177.508 14.16 178.035 14.2813 178.492 14.524C178.959 14.7573 179.323 15.0513 179.584 15.406V14.286H181.194V22.126C181.194 22.8353 181.045 23.4653 180.746 24.016C180.448 24.576 180.014 25.0147 179.444 25.332C178.884 25.6493 178.212 25.808 177.428 25.808C176.383 25.808 175.515 25.5607 174.824 25.066C174.134 24.5807 173.742 23.918 173.648 23.078H175.23C175.352 23.4793 175.608 23.8013 176 24.044C176.402 24.296 176.878 24.422 177.428 24.422C178.072 24.422 178.59 24.226 178.982 23.834C179.384 23.442 179.584 22.8727 179.584 22.126V20.838C179.314 21.202 178.945 21.51 178.478 21.762C178.021 22.0047 177.498 22.126 176.91 22.126C176.238 22.126 175.622 21.958 175.062 21.622C174.512 21.2767 174.073 20.8007 173.746 20.194C173.429 19.578 173.27 18.8827 173.27 18.108C173.27 17.3333 173.429 16.6473 173.746 16.05C174.073 15.4527 174.512 14.9907 175.062 14.664C175.622 14.328 176.238 14.16 176.91 14.16ZM179.584 18.136C179.584 17.604 179.472 17.142 179.248 16.75C179.034 16.358 178.749 16.0593 178.394 15.854C178.04 15.6487 177.657 15.546 177.246 15.546C176.836 15.546 176.453 15.6487 176.098 15.854C175.744 16.05 175.454 16.344 175.23 16.736C175.016 17.1187 174.908 17.576 174.908 18.108C174.908 18.64 175.016 19.1067 175.23 19.508C175.454 19.9093 175.744 20.2173 176.098 20.432C176.462 20.6373 176.845 20.74 177.246 20.74C177.657 20.74 178.04 20.6373 178.394 20.432C178.749 20.2267 179.034 19.928 179.248 19.536C179.472 19.1347 179.584 18.668 179.584 18.136Z" fill="black"/>
</g>
<defs>
<filter id="filter0_dd_845_13452" x="121.125" y="6" width="67" height="24" filterUnits="userSpaceOnUse" color-interpolation-filters="sRGB">
<feFlood flood-opacity="0" result="BackgroundImageFix"/>
<feColorMatrix in="SourceAlpha" type="matrix" values="0 0 0 0 0 0 0 0 0 0 0 0 0 0 0 0 0 0 127 0" result="hardAlpha"/>
<feOffset dy="0.5"/>
<feGaussianBlur stdDeviation="0.75"/>
<feColorMatrix type="matrix" values="0 0 0 0 0 0 0 0 0 0 0 0 0 0 0 0 0 0 0.19 0"/>
<feBlend mode="multiply" in2="BackgroundImageFix" result="effect1_dropShadow_845_13452"/>
<feColorMatrix in="SourceAlpha" type="matrix" values="0 0 0 0 0 0 0 0 0 0 0 0 0 0 0 0 0 0 127 0" result="hardAlpha"/>
<feOffset/>
<feGaussianBlur stdDeviation="0.5"/>
<feColorMatrix type="matrix" values="0 0 0 0 0 0 0 0 0 0 0 0 0 0 0 0 0 0 0.04 0"/>
<feBlend mode="multiply" in2="effect1_dropShadow_845_13452" result="effect2_dropShadow_845_13452"/>
<feBlend mode="normal" in="SourceGraphic" in2="effect2_dropShadow_845_13452" result="shape"/>
</filter>
<linearGradient id="paint0_linear_845_13452" x1="0.366905" y1="35.1743" x2="30.1878" y2="35.1743" gradientUnits="userSpaceOnUse">
<stop stop-color="#8C90A2"/>
<stop offset="0.510417" stop-color="#585C6D"/>
<stop offset="1" stop-color="#2E3039"/>
</linearGradient>
<linearGradient id="paint1_linear_845_13452" x1="2.90168" y1="6.33807" x2="27.653" y2="6.33807" gradientUnits="userSpaceOnUse">
<stop stop-color="#8C90A2"/>
<stop offset="0.510417" stop-color="#585C6D"/>
<stop offset="1" stop-color="#2E3039"/>
</linearGradient>
</defs>
</svg>
