<svg width="24" height="24" viewBox="0 0 24 24" fill="none" xmlns="http://www.w3.org/2000/svg">
<path fill-rule="evenodd" clip-rule="evenodd" d="M17.8333 22H6.16663C4.78829 22 3.66663 20.8792 3.66663 19.5V11.1667C3.66663 9.78833 4.78829 8.66667 6.16663 8.66667H6.99996V7C6.99996 4.24333 9.24246 2 12 2C14.7575 2 17 4.24333 17 7V8.66667H17.8333C19.2116 8.66667 20.3333 9.78833 20.3333 11.1667V19.5C20.3333 20.8792 19.2116 22 17.8333 22ZM12 3.66667C10.1616 3.66667 8.66663 5.16167 8.66663 7V8.66667H15.3333V7C15.3333 5.16167 13.8383 3.66667 12 3.66667ZM18.6666 11.1667C18.6666 10.7067 18.2925 10.3333 17.8333 10.3333H6.16663C5.70746 10.3333 5.33329 10.7067 5.33329 11.1667V19.5C5.33329 19.9592 5.70746 20.3333 6.16663 20.3333H17.8333C18.2925 20.3333 18.6666 19.9592 18.6666 19.5V11.1667ZM12.8334 15.5179V17.4162C12.8334 17.8769 12.4609 18.2495 12 18.2495C11.5392 18.2495 11.1667 17.8769 11.1667 17.4162V15.5179C10.6709 15.2284 10.3334 14.6972 10.3334 14.0829C10.3334 13.164 11.0809 12.4171 12 12.4171C12.9184 12.4171 13.6667 13.164 13.6667 14.0829C13.6667 14.6972 13.3292 15.2284 12.8334 15.5179Z" fill="#464649"/>
</svg>
