<svg width="24" height="24" viewBox="0 0 24 24" fill="none" xmlns="http://www.w3.org/2000/svg">
<path fill-rule="evenodd" clip-rule="evenodd" d="M20.3333 21.3333H18.6667C17.7475 21.3333 17 20.5858 17 19.6667V14.6675C17 13.7483 17.7475 13.0008 18.6667 13.0008H20.3333V13C20.3333 8.405 16.595 4.66667 12 4.66667C7.405 4.66667 3.66667 8.405 3.66667 13V13.0008H5.33333C6.2525 13.0008 7 13.7483 7 14.6675V19.6667C7 20.5858 6.2525 21.3333 5.33333 21.3333H3.66667C2.7475 21.3333 2 20.5858 2 19.6667V14.6675V13C2 7.48583 6.48583 3 12 3C17.5142 3 22 7.48583 22 13V14.6675V19.6667C22 20.5858 21.2525 21.3333 20.3333 21.3333ZM3.66667 19.6667H5.33083L5.33333 14.6675H3.66667V19.6667ZM18.6667 14.6675V19.6667H20.3308L20.3333 14.6675H18.6667Z" fill="#464649"/>
</svg>
