<svg width="24" height="24" viewBox="0 0 24 24" fill="none" xmlns="http://www.w3.org/2000/svg">
<path fill-rule="evenodd" clip-rule="evenodd" d="M8.66829 12.8333C8.66829 14.6708 10.1633 16.1667 12.0016 16.1667C13.84 16.1667 15.3498 14.656 15.3498 12.8185V5.055C15.3498 3.5 13.7441 2 12.0016 2C10.2591 2 8.67015 3.5 8.67015 5.055L8.66829 12.8333ZM12.835 18.6083V20.3333H16.1683C16.6283 20.3333 17.0016 20.7067 17.0016 21.1667C17.0016 21.6267 16.6283 22 16.1683 22H7.83496C7.37496 22 7.00163 21.6267 7.00163 21.1667C7.00163 20.7067 7.37496 20.3333 7.83496 20.3333H11.1683V18.6083C7.88496 18.1967 5.33496 15.3933 5.33496 12V9.5C5.33496 9.04 5.70829 8.66667 6.16829 8.66667C6.62829 8.66667 7.00163 9.04 7.00163 9.5V12C7.00163 14.7575 9.24413 17 12.0016 17C14.7591 17 17.0016 14.7575 17.0016 12V9.5C17.0016 9.04 17.375 8.66667 17.835 8.66667C18.295 8.66667 18.6683 9.04 18.6683 9.5V12C18.6683 15.3933 16.1183 18.1967 12.835 18.6083ZM13.6683 5.335C13.6683 4.415 12.9208 3.66667 12.0017 3.66667C11.0825 3.66667 10.335 4.415 10.335 5.335V12.8333C10.335 13.7525 11.0825 14.5 12.0017 14.5C12.9208 14.5 13.6683 13.7525 13.6683 12.8333V5.335Z" fill="#464649"/>
</svg>
