<svg width="24" height="24" viewBox="0 0 24 24" fill="none" xmlns="http://www.w3.org/2000/svg">
<path fill-rule="evenodd" clip-rule="evenodd" d="M14.5085 4.44885C13.394 2.51705 10.6059 2.51705 9.49145 4.44885L2.39186 16.7548C1.27798 18.6855 2.67141 21.0981 4.90041 21.0981H19.0996C21.3286 21.0981 22.722 18.6855 21.6081 16.7548L14.5085 4.44885ZM11.9999 8.15128C12.4248 8.15128 12.7692 8.49567 12.7692 8.92051V12.7667C12.7692 13.1915 12.4248 13.5359 11.9999 13.5359C11.5751 13.5359 11.2307 13.1915 11.2307 12.7667V8.92051C11.2307 8.49567 11.5751 8.15128 11.9999 8.15128ZM13.1 16.0974C13.1 16.7049 12.6075 17.1974 12 17.1974C11.3925 17.1974 10.9 16.7049 10.9 16.0974C10.9 15.4899 11.3925 14.9974 12 14.9974C12.6075 14.9974 13.1 15.4899 13.1 16.0974Z" fill="#464649"/>
</svg>
