<svg width="56" height="64" viewBox="0 0 56 64" fill="none" xmlns="http://www.w3.org/2000/svg">
<path fill-rule="evenodd" clip-rule="evenodd" d="M53.2919 15.3212L54.7915 11.6446C54.7915 11.6446 52.883 9.60207 50.5655 7.28718C48.248 4.97229 43.3403 6.33399 43.3403 6.33399L37.751 3.05176e-05H27.9357H18.1204L12.5311 6.33399C12.5311 6.33399 7.62344 4.97229 5.30593 7.28718C2.98843 9.60207 1.07989 11.6446 1.07989 11.6446L2.57946 15.3212L0.670921 20.768C0.670921 20.768 6.28406 42.0045 6.94182 44.5978C8.2369 49.7042 9.123 51.6787 12.8037 54.2659C16.4845 56.8531 23.1644 61.3468 24.255 62.0276C25.3455 62.7085 26.7088 63.8682 27.9357 63.8682C29.1626 63.8682 30.5259 62.7085 31.6164 62.0276C32.707 61.3468 39.3869 56.8531 43.0676 54.2659C46.7484 51.6787 47.6345 49.7042 48.9296 44.5978C49.5872 42.0045 55.2005 20.768 55.2005 20.768L53.2919 15.3212Z" fill="url(#paint0_linear_34_14765)"/>
<path d="M34.8882 11.5084C35.7061 11.5084 41.7726 10.351 41.7726 10.351C41.7726 10.351 48.9617 19.0318 48.9617 20.8871C48.9617 22.4211 48.3435 23.0215 47.6154 23.7286C47.4629 23.8768 47.3056 24.0296 47.1481 24.1966L41.7576 29.9143C41.7041 29.9709 41.6446 30.0307 41.5817 30.0939C41.0436 30.6343 40.2513 31.4301 40.8104 32.7516C40.8478 32.84 40.8862 32.9298 40.9252 33.0209C41.5382 34.4528 42.2949 36.2204 41.3317 38.0116C40.3071 39.9169 38.5519 41.1886 37.4272 40.9784C36.3026 40.768 33.6613 39.3893 32.69 38.7595C31.7187 38.1297 28.6402 35.5937 28.6402 34.6233C28.6402 33.8141 30.8541 32.4677 31.9298 31.8136C32.1438 31.6835 32.3127 31.5808 32.4102 31.5151C32.5213 31.4404 32.707 31.3251 32.9356 31.1833C33.9174 30.5739 35.6902 29.4738 35.7348 28.986C35.7896 28.3845 35.7687 28.2082 34.9774 26.7223C34.8091 26.4063 34.6122 26.0679 34.4087 25.7181C33.6551 24.423 32.8113 22.9728 32.9981 21.934C33.2089 20.7614 35.0484 20.089 36.6066 19.5195C36.8014 19.4483 36.9917 19.3788 37.1739 19.31C37.6287 19.1385 38.2001 18.9247 38.797 18.7013C40.3527 18.1193 42.0812 17.4725 42.3662 17.3413C42.7609 17.1595 42.6589 16.9864 41.4638 16.8732C41.3057 16.8583 41.1091 16.8374 40.8835 16.8135C39.404 16.6564 36.6754 16.3668 35.3488 16.7361C35.0879 16.8088 34.7955 16.8879 34.4888 16.9708C32.9984 17.374 31.1719 17.868 30.9964 18.1528C30.9657 18.2027 30.9356 18.2455 30.9071 18.286C30.7392 18.5243 30.6298 18.6797 30.8155 19.6925C30.8708 19.9941 30.9845 20.5874 31.1251 21.3209C31.5368 23.4686 32.179 26.8188 32.2599 27.5715C32.2712 27.6768 32.2837 27.7784 32.2957 27.8762C32.3987 28.7159 32.4672 29.2746 31.491 29.4976C31.4097 29.5161 31.3243 29.5357 31.2356 29.5561C30.1341 29.8085 28.5192 30.1787 27.9357 30.1787C27.3519 30.1787 25.7358 29.8082 24.6343 29.5557C24.5461 29.5355 24.4612 29.516 24.3804 29.4976C23.404 29.2746 23.4726 28.7159 23.5756 27.8762C23.5876 27.7784 23.6 27.6768 23.6114 27.5715C23.6925 26.8178 24.3363 23.4593 24.7479 21.312C24.8877 20.5826 25.0007 19.9929 25.0558 19.6925C25.2415 18.6798 25.1321 18.5243 24.9643 18.286C24.9358 18.2455 24.9056 18.2027 24.8749 18.1528C24.6995 17.868 22.8732 17.374 21.3828 16.9709C21.076 16.8879 20.7834 16.8088 20.5224 16.7361C19.1959 16.3668 16.4676 16.6564 14.988 16.8134C14.7623 16.8374 14.5656 16.8583 14.4074 16.8732C13.2124 16.9864 13.1105 17.1595 13.505 17.3413C13.79 17.4725 15.5177 18.1189 17.0731 18.7009C17.6704 18.9244 18.2424 19.1384 18.6974 19.31C18.8797 19.3788 19.0702 19.4484 19.265 19.5196C20.8231 20.0891 22.6625 20.7614 22.8733 21.934C23.06 22.9727 22.2164 24.4226 21.463 25.7175C21.2594 26.0675 21.0623 26.4061 20.894 26.7223C20.1027 28.2082 20.0817 28.3845 20.1366 28.986C20.181 29.4737 21.9532 30.5735 22.9351 31.1829C23.164 31.3249 23.3499 31.4403 23.461 31.5151C23.5585 31.5807 23.7272 31.6833 23.941 31.8133C25.0165 32.4673 27.231 33.8139 27.231 34.6233C27.231 35.5937 24.1527 38.1297 23.1814 38.7595C22.2101 39.3893 19.5688 40.768 18.4441 40.9784C17.3195 41.1886 15.5643 39.9169 14.5397 38.0116C13.5766 36.2205 14.3331 34.4531 14.9459 33.0213C14.985 32.93 15.0234 32.8401 15.0609 32.7516C15.62 31.4299 14.8275 30.6341 14.2894 30.0937C14.2265 30.0306 14.1671 29.9709 14.1137 29.9143L8.72315 24.1966C8.5657 24.0296 8.4084 23.8768 8.25592 23.7287C7.52783 23.0216 6.90964 22.4212 6.90964 20.8871C6.90964 19.0318 14.0988 10.351 14.0988 10.351C14.0988 10.351 20.1652 11.5084 20.9832 11.5084C21.6359 11.5084 22.8962 11.0749 24.21 10.623C24.5426 10.5085 24.8787 10.3929 25.2092 10.2829C26.8451 9.7382 27.9357 9.73425 27.9357 9.73425C27.9357 9.73425 29.0263 9.7382 30.6622 10.2829C30.9927 10.3929 31.3288 10.5085 31.6614 10.623C32.9752 11.0749 34.2355 11.5084 34.8882 11.5084Z" fill="white"/>
<path d="M33.8469 42.2135C35.1293 42.8736 36.0391 43.3419 36.3831 43.5569C36.8281 43.8353 36.5566 44.3599 36.1514 44.6462C35.7459 44.9324 30.2983 49.146 29.7696 49.6117C29.702 49.6713 29.6302 49.7359 29.5555 49.8032C29.0461 50.2618 28.3963 50.8468 27.9357 50.8468C27.4748 50.8468 26.8246 50.2614 26.3152 49.8026C26.2406 49.7356 26.1691 49.6712 26.1017 49.6117C25.5729 49.146 20.1254 44.9324 19.72 44.6462C19.3145 44.3599 19.0433 43.8353 19.4882 43.5569C19.8324 43.3418 20.7431 42.8731 22.0268 42.2123C22.4031 42.0187 22.8113 41.8085 23.2468 41.5834C25.1677 40.5905 27.562 39.7462 27.9357 39.7462C28.3093 39.7462 30.7034 40.5905 32.6247 41.5834C33.061 41.809 33.47 42.0195 33.8469 42.2135Z" fill="white"/>
<defs>
<linearGradient id="paint0_linear_34_14765" x1="0.670921" y1="64.3188" x2="55.2005" y2="64.3188" gradientUnits="userSpaceOnUse">
<stop stop-color="#FF5601"/>
<stop offset="0.5" stop-color="#FF4000"/>
<stop offset="1" stop-color="#FF1F01"/>
</linearGradient>
</defs>
</svg>
