<svg width="22" height="22" viewBox="0 0 22 22" fill="none" xmlns="http://www.w3.org/2000/svg">
<path fill-rule="evenodd" clip-rule="evenodd" d="M20.9377 7.11058L20.2464 5.26992L20.7267 4.21254C20.7884 4.07642 20.7587 3.91669 20.6519 3.81104L19.3451 2.51465C18.7737 1.94815 17.921 1.75335 17.153 2.0146L16.7877 2.13881L14.8791 0L12.0714 0L10.2919 0L7.86116 0L5.97698 2.16471L5.62172 2.0421C4.84668 1.77467 3.98377 1.97152 3.40857 2.54696L2.07867 3.86765C1.99336 3.95221 1.96999 4.07917 2.01954 4.18756L2.52135 5.28504L1.8335 7.12479L2.27874 8.7835L4.30654 16.3439C4.54003 17.2157 5.07807 17.979 5.82646 18.5018C5.82646 18.5018 8.28852 20.2045 10.7181 21.7509C10.9317 21.887 11.1552 21.9865 11.395 21.9828C11.6348 21.986 11.8582 21.887 12.0714 21.7502C14.8001 19.9964 16.959 18.4949 16.959 18.4949C17.7067 17.9713 18.2438 17.207 18.4764 16.335L20.4946 8.77158L20.9377 7.11058Z" fill="url(#paint0_linear)"/>
<path fill-rule="evenodd" clip-rule="evenodd" d="M18.7799 7.47562L18.7483 7.57418L18.698 7.75089C18.5636 7.915 18.2804 8.22993 18.0683 8.45111L16.1189 10.4828C15.9069 10.7037 15.7872 10.9809 15.9082 11.26L16.1711 11.8954C16.2919 12.1743 16.3039 12.6359 16.188 12.9458C16.0703 13.2612 15.8676 13.5399 15.6019 13.7524L15.3985 13.9149C15.1585 14.1067 14.7335 14.1571 14.4537 14.0267L13.5558 13.6091C13.2763 13.4791 12.8592 13.2066 12.6289 13.0036L11.7794 12.255C11.6137 12.1087 11.6043 11.8575 11.7586 11.7003L13.8273 10.332C14.0839 10.1623 14.2197 9.84856 14.0739 9.58108L13.3384 8.26912C13.1925 8.00141 13.1342 7.64592 13.2087 7.47883C13.2833 7.31174 13.5811 7.08712 13.8709 6.97962L16.2723 6.10498C16.5619 5.99748 16.5464 5.88655 16.2381 5.85813L14.7037 5.74628C14.3952 5.71786 14.1691 5.76186 13.8709 5.84346L12.7095 6.12515C12.4113 6.20675 12.3482 6.51778 12.4042 6.81574L12.8833 9.36265C12.9395 9.66085 12.9669 9.9611 12.9444 10.0301C12.9219 10.0991 12.6565 10.2102 12.3545 10.2774L11.9573 10.3656C11.6553 10.4328 11.1605 10.4358 10.8578 10.3728L10.3773 10.2724C10.0744 10.2091 9.80825 10.1009 9.78554 10.0322C9.76307 9.96317 9.79023 9.66245 9.84617 9.36449L10.3223 6.81712C10.3782 6.51892 10.3147 6.20835 10.0165 6.12698L8.85462 5.84667C8.55641 5.7653 8.33011 5.72221 8.02183 5.75063L6.48736 5.86386C6.17908 5.89251 6.16387 6.00344 6.45342 6.11048L8.85626 6.9826C9.14581 7.08987 9.44403 7.31403 9.5187 7.48112C9.5936 7.64798 9.53555 8.00347 9.39019 8.27118L8.65608 9.5836C8.51072 9.85131 8.64676 10.1651 8.90354 10.3345L10.9742 11.7008C11.1287 11.8578 11.1195 12.1092 10.9541 12.2554L10.1053 13.0052C9.87543 13.2085 9.45854 13.4812 9.17905 13.6119L8.28184 14.0306C8.00235 14.161 7.57703 14.1113 7.3371 13.9199L7.13369 13.7576C6.86755 13.5454 6.66437 13.2669 6.5368 12.9265C6.43006 12.6416 6.44129 12.1805 6.56161 11.9011L6.82406 11.2658C6.94461 10.9864 6.82448 10.7092 6.61217 10.4885L4.66044 8.45913C4.44837 8.23841 4.16467 7.92371 4.03031 7.76006L3.97951 7.58312L3.94791 7.48456C3.94487 7.3711 3.9863 7.00942 4.03335 6.91155C4.0804 6.81414 4.26064 6.52855 4.43409 6.27734L4.85168 5.67202C5.02513 5.42081 5.32498 5.02131 5.51786 4.78408L6.12997 4.03229C6.32285 3.7953 6.48741 3.60231 6.51222 3.60391C6.51339 3.60231 6.76315 3.64792 7.06721 3.70499L7.99439 3.87941C8.29846 3.93649 8.63389 3.99929 8.73992 4.01877C8.84573 4.03848 9.17343 3.97797 9.46814 3.88446L10.135 3.6729C10.4295 3.57916 10.8766 3.45585 11.1282 3.39854L11.3613 3.40198L11.5945 3.39832C11.8461 3.45516 12.2932 3.57801 12.5879 3.6713L13.2553 3.88216C13.55 3.97545 13.8777 4.0355 13.9835 4.01579C14.0745 3.99887 14.3344 3.94968 14.5986 3.8997L14.7288 3.87506L15.6557 3.69995C15.9598 3.64242 16.2095 3.59658 16.2273 3.59795C16.2355 3.59658 16.4001 3.78888 16.5934 4.0261L17.2065 4.7772C17.3998 5.01397 17.6999 5.41302 17.8738 5.66422L18.2921 6.26886C18.4658 6.51984 18.7371 6.97664 18.7539 7.08047C18.7713 7.1843 18.7827 7.36216 18.7799 7.47562ZM11.4877 13.5384C11.5149 13.5384 11.7714 13.633 12.0575 13.7492L12.3229 13.857C12.609 13.9729 13.0692 14.1801 13.3451 14.3174L14.1284 14.7071C14.4043 14.8441 14.4242 15.1009 14.1724 15.2773L13.5043 15.7454C13.2525 15.9219 12.8564 16.2281 12.6244 16.4266L11.782 17.1467C11.5507 17.3445 11.176 17.3454 10.9491 17.1493C10.7221 16.9528 10.3464 16.6312 10.114 16.4348C9.88175 16.2382 9.48476 15.9342 9.23172 15.7596L8.56601 15.2989C8.31297 15.1238 8.33099 14.8659 8.60556 14.7259L9.393 14.3243C9.66757 14.184 10.1261 13.9741 10.4122 13.8581L10.6776 13.7499C10.9634 13.6337 11.2197 13.5384 11.2471 13.5384H11.3674H11.4877Z" fill="url(#paint1_linear)"/>
<defs>
<linearGradient id="paint0_linear" x1="1.8335" y1="22.138" x2="20.9377" y2="22.138" gradientUnits="userSpaceOnUse">
<stop stop-color="#FF5500"/>
<stop offset="0.409877" stop-color="#FF5500"/>
<stop offset="0.49434" stop-color="#FF4530"/>
<stop offset="0.572365" stop-color="#FF2000"/>
<stop offset="1" stop-color="#FF2000"/>
</linearGradient>
<linearGradient id="paint1_linear" x1="11.3641" y1="20.5455" x2="18.3009" y2="20.5455" gradientUnits="userSpaceOnUse">
<stop stop-color="white"/>
<stop offset="1" stop-color="#F4F4F4"/>
</linearGradient>
</defs>
</svg>
