<svg width="20" height="20" viewBox="0 0 20 20" fill="none" xmlns="http://www.w3.org/2000/svg">
<path fill-rule="evenodd" clip-rule="evenodd" d="M3.96472 16.5749C3.54165 16.998 2.85573 16.998 2.43266 16.5749C2.00959 16.1518 2.00959 15.4659 2.43266 15.0429L8.03896 9.43655L2.56726 3.96485C2.14419 3.54178 2.14419 2.85585 2.56726 2.43278C2.99033 2.00971 3.67626 2.00971 4.09933 2.43278L9.57103 7.90448L15.0427 2.43278C15.4658 2.00971 16.1517 2.00971 16.5748 2.43278C16.9979 2.85585 16.9979 3.54178 16.5748 3.96484L11.1031 9.43655L16.7094 15.0429C17.1325 15.4659 17.1325 16.1518 16.7094 16.5749C16.2863 16.998 15.6004 16.998 15.1773 16.5749L9.57103 10.9686L3.96472 16.5749Z" fill="#495057"/>
</svg>
