<svg width="19" height="17" viewBox="0 0 19 17" fill="none" xmlns="http://www.w3.org/2000/svg">
<path fill-rule="evenodd" clip-rule="evenodd" d="M17.2426 16.7192L2.24262 16.7192C1.41537 16.7192 0.74262 16.1212 0.742619 15.3866L0.742618 11.3879C0.742618 11.0199 1.07787 10.7219 1.49262 10.7219C1.90737 10.7219 2.24262 11.0199 2.24262 11.3879L2.24262 15.3866L17.2426 15.3866L17.2426 11.3879C17.2426 11.0199 17.5779 10.7219 17.9926 10.7219C18.4074 10.7219 18.7426 11.0199 18.7426 11.3879L18.7426 15.3866C18.7426 16.1212 18.0691 16.7192 17.2426 16.7192ZM10.2736 12.5186C10.2046 12.5806 10.1214 12.6292 10.0291 12.6632C9.93762 12.6972 9.84012 12.7146 9.74261 12.7146C9.64511 12.7146 9.54762 12.6972 9.45612 12.6632C9.36536 12.6299 9.28362 12.5819 9.21462 12.5212C9.21462 12.5206 9.21387 12.5206 9.21312 12.5199C9.21237 12.5192 9.21237 12.5192 9.21162 12.5186L5.46312 9.19391C5.16912 8.93391 5.16912 8.51257 5.46162 8.25191C5.75487 7.99057 6.22887 7.99191 6.52212 8.25057L8.99261 10.4412L8.99261 1.38524C8.99261 1.01724 9.32786 0.719237 9.74261 0.719237C10.1574 0.719237 10.4926 1.01724 10.4926 1.38524L10.4926 10.4412L12.9631 8.25057C13.2564 7.9919 13.7304 7.99057 14.0236 8.2519C14.3161 8.51257 14.3161 8.9339 14.0221 9.1939L10.2736 12.5186Z" fill="#736fee"/>
</svg>
