<svg width="24" height="24" viewBox="0 0 24 24" fill="none" xmlns="http://www.w3.org/2000/svg">
<g clip-path="url(#clip0_3118_67458)">
<path d="M12 24C18.6274 24 24 18.6274 24 12C24 5.37258 18.6274 0 12 0C5.37258 0 7.23761e-08 5.37258 1.61657e-07 12C2.50937e-07 18.6274 5.37258 24 12 24Z" fill="#5472E8"/>
<path d="M11.9985 5.5L11.9985 10.3055L16.331 12.1205L11.9985 5.5Z" fill="#C1CCF8"/>
<path d="M11.9986 5.5L7.66553 12.1205L11.9986 10.3055L11.9986 5.5Z" fill="white"/>
<path d="M11.9985 15.2348L11.9985 18.5L16.3339 12.877L11.9985 15.2348Z" fill="#C1CCF8"/>
<path d="M11.9986 18.5L11.9986 15.2342L7.66553 12.877L11.9986 18.5Z" fill="white"/>
<path d="M11.9985 14.4789L16.331 12.1205L11.9985 10.3066L11.9985 14.4789Z" fill="#8BA1F6"/>
<path d="M7.66553 12.1205L11.9986 14.4789L11.9986 10.3066L7.66553 12.1205Z" fill="#C1CCF8"/>
</g>
<defs>
<clipPath id="clip0_3118_67458">
<rect width="24" height="24" fill="white"/>
</clipPath>
</defs>
</svg>
