<svg width="28" height="29" viewBox="0 0 28 29" fill="none" xmlns="http://www.w3.org/2000/svg">
<path fill-rule="evenodd" clip-rule="evenodd" d="M24.7988 28.7192L2.63211 28.7192C1.34527 28.7192 0.298772 27.6727 0.298772 26.3859L0.298768 3.05257C0.298767 1.76574 1.34527 0.719238 2.6321 0.719238L24.7988 0.719234C26.0856 0.719234 27.1321 1.76573 27.1321 3.05257L27.1321 26.3859C27.1321 27.6727 26.0856 28.7192 24.7988 28.7192ZM2.6321 3.05257L2.6321 26.3859L24.7953 26.3859L24.7988 3.05257L2.6321 3.05257ZM22.4654 25.2192C21.8214 25.2192 21.2988 24.6977 21.2988 24.0526L21.2988 22.8859C21.2988 22.2407 21.8214 21.7192 22.4654 21.7192C23.1106 21.7192 23.6321 22.2407 23.6321 22.8859L23.6321 24.0526C23.6321 24.6977 23.1106 25.2192 22.4654 25.2192ZM22.4654 7.71924C21.8214 7.71924 21.2988 7.19774 21.2988 6.55257L21.2988 5.3859C21.2988 4.74074 21.8214 4.21924 22.4654 4.21924C23.1106 4.21924 23.6321 4.74074 23.6321 5.3859L23.6321 6.55257C23.6321 7.19774 23.1106 7.71924 22.4654 7.71924ZM18.9654 25.2192C18.3214 25.2192 17.7988 24.6977 17.7988 24.0526L17.7988 22.8859C17.7988 22.2407 18.3214 21.7192 18.9654 21.7192C19.6106 21.7192 20.1321 22.2407 20.1321 22.8859L20.1321 24.0526C20.1321 24.6977 19.6106 25.2192 18.9654 25.2192ZM18.9654 7.71924C18.3214 7.71924 17.7988 7.19774 17.7988 6.55257L17.7988 5.3859C17.7988 4.74074 18.3214 4.21924 18.9654 4.21924C19.6106 4.21924 20.1321 4.74074 20.1321 5.3859L20.1321 6.55257C20.1321 7.19774 19.6106 7.71924 18.9654 7.71924ZM15.4654 7.71924C14.8214 7.71924 14.2988 7.19774 14.2988 6.55257L14.2988 5.3859C14.2988 4.74074 14.8214 4.21924 15.4654 4.21924C16.1106 4.21924 16.6321 4.74074 16.6321 5.3859L16.6321 6.55257C16.6321 7.19774 16.1106 7.71924 15.4654 7.71924ZM11.9654 7.71924C11.3214 7.71924 10.7988 7.19774 10.7988 6.55257L10.7988 5.3859C10.7988 4.74074 11.3214 4.21924 11.9654 4.21924C12.6106 4.21924 13.1321 4.74074 13.1321 5.3859L13.1321 6.55257C13.1321 7.19774 12.6106 7.71924 11.9654 7.71924ZM18.3296 13.7602C18.7228 13.962 18.9689 14.368 18.9654 14.809C18.9619 15.2512 18.7076 15.6537 18.3109 15.8474L11.3109 19.268C11.1488 19.3462 10.9738 19.3859 10.7988 19.3859C10.5829 19.3859 10.3694 19.3264 10.1804 19.2085C9.83977 18.995 9.6321 18.6205 9.6321 18.2192L9.6321 11.2192C9.6321 10.8132 9.84327 10.4352 10.1898 10.224C10.5351 10.0117 10.9679 9.99537 11.3296 10.1809L18.3296 13.7602ZM11.9654 16.3514L15.1901 14.7752L11.9654 13.1267L11.9654 16.3514ZM8.46543 7.71924C7.82143 7.71924 7.29877 7.19774 7.29877 6.55257L7.29877 5.3859C7.29877 4.74074 7.82143 4.21924 8.46543 4.21924C9.1106 4.21924 9.6321 4.74074 9.6321 5.3859L9.6321 6.55257C9.6321 7.19774 9.1106 7.71924 8.46543 7.71924ZM4.96543 25.2192C4.32143 25.2192 3.79877 24.6977 3.79877 24.0526L3.79877 22.8859C3.79877 22.2407 4.32143 21.7192 4.96543 21.7192C5.6106 21.7192 6.1321 22.2407 6.1321 22.8859L6.1321 24.0526C6.1321 24.6977 5.6106 25.2192 4.96543 25.2192ZM4.96543 7.71924C4.32143 7.71924 3.79877 7.19774 3.79877 6.55257L3.79877 5.3859C3.79877 4.74074 4.32143 4.21924 4.96543 4.21924C5.6106 4.21924 6.1321 4.74074 6.1321 5.3859L6.1321 6.55257C6.1321 7.19774 5.6106 7.71924 4.96543 7.71924ZM8.46543 21.7192C9.1106 21.7192 9.6321 22.2407 9.6321 22.8859L9.6321 24.0526C9.6321 24.6977 9.1106 25.2192 8.46543 25.2192C7.82143 25.2192 7.29877 24.6977 7.29877 24.0526L7.29877 22.8859C7.29877 22.2407 7.82143 21.7192 8.46543 21.7192ZM11.9654 21.7192C12.6106 21.7192 13.1321 22.2407 13.1321 22.8859L13.1321 24.0526C13.1321 24.6977 12.6106 25.2192 11.9654 25.2192C11.3214 25.2192 10.7988 24.6977 10.7988 24.0526L10.7988 22.8859C10.7988 22.2407 11.3214 21.7192 11.9654 21.7192ZM15.4654 21.7192C16.1106 21.7192 16.6321 22.2407 16.6321 22.8859L16.6321 24.0526C16.6321 24.6977 16.1106 25.2192 15.4654 25.2192C14.8214 25.2192 14.2988 24.6977 14.2988 24.0526L14.2988 22.8859C14.2988 22.2407 14.8214 21.7192 15.4654 21.7192Z" fill="url(#paint0_linear_2216_6188)"/>
<defs>
<linearGradient id="paint0_linear_2216_6188" x1="27.1321" y1="28.7192" x2="-3.64389" y2="7.33285" gradientUnits="userSpaceOnUse">
<stop stop-color="#BF14A2"/>
<stop offset="1" stop-color="#F73A1C"/>
</linearGradient>
</defs>
</svg>
