<svg width="264" height="264" viewBox="0 0 264 264" fill="none" xmlns="http://www.w3.org/2000/svg">
<g filter="url(#filter0_d)">
<g clip-path="url(#clip0)">
<path d="M-289.695 31.9016H296.516V98.5165H-289.695V31.9016Z" fill="#D5D9DC"/>
<rect x="-289.695" y="60.0278" width="586.211" height="36.6382" fill="url(#paint0_linear)"/>
<path d="M-289.696 99.0957H296.515V174.399H-289.696V99.0957Z" fill="url(#paint1_linear)"/>
<path fill-rule="evenodd" clip-rule="evenodd" d="M-289.695 116.905C-289.695 112.188 -285.871 108.364 -281.153 108.364H194.135C198.852 108.364 202.676 112.188 202.676 116.905V153.115C202.676 157.832 198.852 161.656 194.135 161.656H-281.153C-285.871 161.656 -289.695 157.832 -289.695 153.115V116.905Z" fill="white"/>
<path fill-rule="evenodd" clip-rule="evenodd" d="M-290 174H297V247H-290V174Z" fill="white"/>
<path fill-rule="evenodd" clip-rule="evenodd" d="M147.116 148.091L156.493 142.583L162.958 131.253V120.33C162.787 120.33 162.617 120.444 162.487 120.67L154.83 134.09L147.173 147.51C147.044 147.737 147.031 147.942 147.116 148.091Z" fill="#FF4724"/>
<path fill-rule="evenodd" clip-rule="evenodd" d="M162.958 120.33V131.253L169.422 142.583L178.8 148.091C178.884 147.942 178.872 147.737 178.743 147.51L171.086 134.09L163.428 120.67C163.299 120.443 163.128 120.33 162.958 120.33Z" fill="#9E1F63"/>
<path fill-rule="evenodd" clip-rule="evenodd" d="M178.8 148.091L169.422 142.583H156.493L147.116 148.091C147.201 148.241 147.382 148.334 147.641 148.334H178.274C178.533 148.334 178.715 148.241 178.8 148.091Z" fill="#662D91"/>
<path fill-rule="evenodd" clip-rule="evenodd" d="M156.493 142.582H169.422L162.958 131.253L156.493 142.582Z" fill="white"/>
<path fill-rule="evenodd" clip-rule="evenodd" d="M119.788 127.902L118.714 125.044L119.46 123.402C119.556 123.19 119.51 122.942 119.344 122.778L117.315 120.765C116.427 119.885 115.103 119.582 113.91 119.988L113.343 120.181L110.379 116.86H106.019H103.255H99.4806L96.5545 120.221L96.0028 120.031C94.7992 119.616 93.4591 119.921 92.5659 120.815L90.5006 122.866C90.3681 122.997 90.3318 123.194 90.4088 123.363L91.1881 125.067L90.1199 127.924L90.8113 130.5L93.9604 142.241C94.323 143.595 95.1585 144.78 96.3208 145.592C96.3208 145.592 100.144 148.236 103.917 150.638C104.249 150.849 104.596 151.004 104.968 150.998C105.341 151.003 105.688 150.849 106.019 150.637C110.256 147.913 113.609 145.581 113.609 145.581C114.77 144.768 115.604 143.581 115.965 142.227L119.1 130.481L119.788 127.902Z" fill="url(#paint2_linear)"/>
<path fill-rule="evenodd" clip-rule="evenodd" d="M116.437 128.469L116.388 128.622L116.31 128.896C116.101 129.151 115.662 129.64 115.332 129.983L112.305 133.139C111.976 133.482 111.79 133.912 111.978 134.346L112.386 135.332C112.574 135.765 112.592 136.482 112.412 136.964C112.229 137.453 111.914 137.886 111.502 138.216L111.186 138.468C110.813 138.766 110.153 138.845 109.719 138.642L108.324 137.994C107.89 137.792 107.243 137.369 106.885 137.053L105.566 135.891C105.308 135.664 105.294 135.273 105.533 135.029L108.746 132.904C109.145 132.641 109.355 132.154 109.129 131.738L107.987 129.701C107.76 129.285 107.67 128.733 107.785 128.474C107.901 128.214 108.364 127.865 108.814 127.698L112.543 126.34C112.993 126.173 112.969 126.001 112.49 125.957L110.107 125.783C109.628 125.739 109.277 125.807 108.814 125.934L107.01 126.371C106.547 126.498 106.449 126.981 106.536 127.444L107.28 131.399C107.367 131.862 107.41 132.328 107.375 132.436C107.34 132.543 106.928 132.715 106.459 132.82L105.842 132.957C105.373 133.061 104.605 133.066 104.135 132.968L103.388 132.812C102.918 132.714 102.505 132.546 102.469 132.439C102.434 132.332 102.477 131.865 102.564 131.402L103.303 127.446C103.39 126.983 103.291 126.501 102.828 126.374L101.024 125.939C100.561 125.813 100.209 125.746 99.7304 125.79L97.3475 125.966C96.8687 126.01 96.8451 126.182 97.2947 126.349L101.026 127.703C101.476 127.87 101.939 128.218 102.055 128.477C102.171 128.736 102.081 129.288 101.855 129.704L100.715 131.742C100.49 132.158 100.701 132.645 101.1 132.908L104.315 135.03C104.555 135.274 104.541 135.664 104.284 135.891L102.966 137.056C102.609 137.371 101.962 137.795 101.528 137.998L100.134 138.648C99.7002 138.851 99.0397 138.773 98.6671 138.476L98.3512 138.224C97.9379 137.895 97.6223 137.462 97.4242 136.934C97.2585 136.491 97.2759 135.775 97.4628 135.341L97.8703 134.354C98.0575 133.921 97.871 133.49 97.5413 133.147L94.5103 129.996C94.181 129.653 93.7404 129.164 93.5318 128.91L93.4529 128.636L93.4038 128.482C93.3991 128.306 93.4634 127.745 93.5365 127.593C93.6096 127.441 93.8895 126.998 94.1588 126.608L94.8073 125.668C95.0767 125.278 95.5423 124.657 95.8419 124.289L96.7924 123.121C97.092 122.753 97.3475 122.454 97.3861 122.456C97.3879 122.454 97.7757 122.524 98.2479 122.613L99.6878 122.884C100.16 122.972 100.681 123.07 100.846 123.1C101.01 123.131 101.519 123.037 101.976 122.892L103.012 122.563C103.469 122.418 104.164 122.226 104.554 122.137L104.917 122.142L105.279 122.137C105.669 122.225 106.364 122.416 106.821 122.561L107.858 122.888C108.315 123.033 108.824 123.126 108.989 123.096C109.13 123.069 109.533 122.993 109.943 122.915L110.146 122.877L111.585 122.605C112.058 122.516 112.446 122.445 112.473 122.447C112.486 122.445 112.741 122.743 113.042 123.112L113.994 124.278C114.294 124.646 114.76 125.265 115.03 125.656L115.68 126.595C115.949 126.984 116.371 127.694 116.397 127.855C116.424 128.016 116.442 128.292 116.437 128.469ZM105.113 137.884C105.155 137.884 105.553 138.031 105.998 138.211L106.41 138.378C106.854 138.558 107.569 138.88 107.997 139.093L109.214 139.698C109.642 139.911 109.673 140.31 109.282 140.584L108.244 141.311C107.853 141.585 107.238 142.061 106.878 142.369C106.778 142.454 106.661 142.555 106.536 142.662C106.209 142.941 105.829 143.265 105.57 143.487C105.211 143.794 104.629 143.796 104.276 143.491C103.924 143.186 103.34 142.687 102.979 142.382C102.619 142.076 102.002 141.604 101.609 141.333L100.575 140.618C100.183 140.346 100.211 139.945 100.637 139.728L101.86 139.104C102.286 138.886 102.998 138.56 103.442 138.38L103.855 138.212C104.299 138.032 104.697 137.884 104.739 137.884H104.926H105.113Z" fill="url(#paint3_linear)"/>
<rect x="68.2429" y="116.86" width="2.13531" height="32.0297" rx="1.06766" fill="#C5C5D3"/>
<line x1="-289.696" y1="173.82" x2="296.515" y2="173.82" stroke="#D6D9DC" stroke-width="1.15852"/>
<g filter="url(#filter1_d)">
<path fill-rule="evenodd" clip-rule="evenodd" d="M181.484 170.413C181.026 170.41 180.567 170.406 180.108 170.402C180.105 169.918 180.101 169.512 180.098 169.057C179.618 169.06 179.163 169.064 178.698 169.067C178.684 168.6 178.671 168.165 178.658 167.701C177.639 167.697 176.62 167.693 175.601 167.69C175.593 167.205 175.587 166.8 175.58 166.344C173.666 166.343 171.752 166.341 169.838 166.339C169.835 165.854 169.832 165.449 169.828 164.993C167.662 165.01 165.964 165.023 164.4 165.035V153.357H163.024V152H158.162V153.357H156.806V173.333H155.416V171.988H154.026V170.642H152.635C152.634 170.193 152.633 169.743 152.631 169.294H149.359V170.626H148V175.097H149.359V176.442H150.749V177.788H152.139V183.905H153.515V187.822H154.891V191.738H156.267V197.139H156.806V197.14H178.48V197.139H178.732V192.401H180.108V186.146H181.484V170.413Z" fill="white"/>
<path fill-rule="evenodd" clip-rule="evenodd" d="M156.806 178.74H158.196V153.357H156.806V178.74ZM155.416 174.679H156.806V173.333H155.416V174.679ZM176.982 169.06V173.571H175.606V168.374C175.605 168.17 175.603 167.958 175.601 167.725C175.603 167.725 175.605 167.724 175.606 167.724V167.719H176.3C177.001 167.714 177.77 167.708 178.697 167.701C178.701 168.156 178.704 168.562 178.708 169.047C178.142 169.051 177.577 169.055 176.982 169.06ZM164.4 166.381V171.677H163.024V153.357H164.4V165.035C165.964 165.023 167.662 165.01 169.828 164.993C169.832 165.449 169.835 165.855 169.838 166.339C168.111 166.352 166.4 166.365 164.4 166.381ZM171.215 167.724V172.461H169.838V166.384H170.529C171.995 166.372 173.592 166.36 175.591 166.344C175.594 166.8 175.597 167.206 175.601 167.69C174.183 167.701 172.777 167.712 171.215 167.724ZM178.708 169.068C178.711 169.58 178.715 170.009 178.718 170.413C179.236 170.409 179.669 170.406 180.108 170.403C180.105 169.918 180.101 169.512 180.098 169.057C179.539 169.061 179.107 169.065 178.708 169.068ZM154.025 173.334H155.415V171.988H154.025V173.334ZM152.636 171.988H154.026V170.642H152.636V171.988ZM150.749 177.788H152.139V176.443H150.749V177.788ZM149.359 176.443H150.749V175.097H149.359V176.443ZM149.359 170.642H152.631V169.294H149.359V170.642ZM148 175.097H149.359V170.626H148V175.097ZM158.162 153.357H163.024V152.001H158.162V153.357ZM178.732 197.14H178.48H156.806H156.267V191.739H157.643V195.595C164.115 195.593 170.586 195.59 177.058 195.587C177.157 195.589 177.256 195.591 177.356 195.593V192.365H178.732V197.14ZM180.108 186.146H181.484V170.413H180.108V186.146ZM178.732 192.401H180.108V186.146H178.732V192.401ZM154.891 191.739H156.267V187.822H154.891V191.739ZM153.515 187.822H154.891V183.905H153.515V187.822ZM152.139 183.905H153.515V177.788H152.139V183.905Z" fill="black"/>
</g>
</g>
</g>
<defs>
<filter id="filter0_d" x="0" y="0" width="264" height="264" filterUnits="userSpaceOnUse" color-interpolation-filters="sRGB">
<feFlood flood-opacity="0" result="BackgroundImageFix"/>
<feColorMatrix in="SourceAlpha" type="matrix" values="0 0 0 0 0 0 0 0 0 0 0 0 0 0 0 0 0 0 127 0"/>
<feOffset/>
<feGaussianBlur stdDeviation="16"/>
<feColorMatrix type="matrix" values="0 0 0 0 0.388235 0 0 0 0 0.411765 0 0 0 0 0.431373 0 0 0 0.36 0"/>
<feBlend mode="normal" in2="BackgroundImageFix" result="effect1_dropShadow"/>
<feBlend mode="normal" in="SourceGraphic" in2="effect1_dropShadow" result="shape"/>
</filter>
<filter id="filter1_d" x="123" y="127" width="83" height="94.14" filterUnits="userSpaceOnUse" color-interpolation-filters="sRGB">
<feFlood flood-opacity="0" result="BackgroundImageFix"/>
<feColorMatrix in="SourceAlpha" type="matrix" values="0 0 0 0 0 0 0 0 0 0 0 0 0 0 0 0 0 0 127 0"/>
<feOffset/>
<feGaussianBlur stdDeviation="12"/>
<feColorMatrix type="matrix" values="0 0 0 0 0.388235 0 0 0 0 0.411765 0 0 0 0 0.431373 0 0 0 0.36 0"/>
<feBlend mode="normal" in2="BackgroundImageFix" result="effect1_dropShadow"/>
<feBlend mode="normal" in="SourceGraphic" in2="effect1_dropShadow" result="shape"/>
</filter>
<linearGradient id="paint0_linear" x1="-274.44" y1="60.6384" x2="-274.44" y2="95.3697" gradientUnits="userSpaceOnUse">
<stop stop-opacity="0.01"/>
<stop offset="1" stop-opacity="0.05"/>
</linearGradient>
<linearGradient id="paint1_linear" x1="-289.696" y1="99.0957" x2="-289.696" y2="174.399" gradientUnits="userSpaceOnUse">
<stop stop-color="#F3F3F3"/>
<stop offset="1" stop-color="#F3F3F6"/>
</linearGradient>
<linearGradient id="paint2_linear" x1="90.1199" y1="151.239" x2="119.788" y2="151.239" gradientUnits="userSpaceOnUse">
<stop stop-color="#FF5500"/>
<stop offset="0.409877" stop-color="#FF5500"/>
<stop offset="0.49434" stop-color="#FF4530"/>
<stop offset="0.572365" stop-color="#FF2000"/>
<stop offset="1" stop-color="#FF2000"/>
</linearGradient>
<linearGradient id="paint3_linear" x1="104.921" y1="148.765" x2="115.693" y2="148.765" gradientUnits="userSpaceOnUse">
<stop stop-color="white"/>
<stop offset="1" stop-color="#F4F4F4"/>
</linearGradient>
<clipPath id="clip0">
<rect x="32" y="32" width="200" height="200" rx="100" fill="white"/>
</clipPath>
</defs>
</svg>
