<svg width="32" height="32" viewBox="0 0 32 32" fill="none" xmlns="http://www.w3.org/2000/svg">
<g id="papyrus">
<path id="Vector" fill-rule="evenodd" clip-rule="evenodd" d="M29.3333 11.7778C29.3333 12.3922 28.8356 12.8889 28.2222 12.8889H22.6667V26.2222C22.6667 28.6733 20.6733 30.6667 18.2222 30.6667H7.33445C7.29445 30.6667 7.26112 30.6478 7.22334 30.6433C7.18445 30.6478 7.15112 30.6667 7.11112 30.6667C4.66001 30.6667 2.66667 28.6733 2.66667 26.2222C2.66667 26.1822 2.68556 26.1489 2.68889 26.1111C2.68556 26.0722 2.66667 26.0389 2.66667 26V22.8889C2.66667 22.2744 3.16445 21.7778 3.77778 21.7778H6.00001V8.44444C6.00001 5.99333 7.99334 4 10.4422 4H24.6656C24.6922 4 24.7144 4.01333 24.74 4.01444C24.79 4.01333 24.8378 4 24.8889 4C27.34 4 29.3333 5.99333 29.3333 8.44444C29.3333 8.48444 29.3145 8.51778 29.3111 8.55556C29.3145 8.59444 29.3333 8.62778 29.3333 8.66667V11.7778ZM4.88887 24V26C4.88887 26.0389 4.86998 26.0722 4.86665 26.1111C4.86998 26.1489 4.88887 26.1822 4.88887 26.2222C4.88887 27.4467 5.88554 28.4444 7.11109 28.4444C7.15109 28.4444 7.18443 28.4633 7.22332 28.4667C7.26109 28.4633 7.29443 28.4444 7.33443 28.4444H14.3955C14.0133 27.7878 13.7778 27.0356 13.7778 26.2222C13.7778 26.1822 13.7966 26.1489 13.8 26.1111C13.7966 26.0722 13.7778 26.0389 13.7778 26V24H4.88887ZM10.4422 6.22222C9.21778 6.22222 8.22223 7.22 8.22223 8.44444V21.7778H14.8889C15.5022 21.7778 16 22.2744 16 22.8889V26C16 26.0389 15.9811 26.0722 15.9778 26.1111C15.9811 26.1489 16 26.1822 16 26.2222C16 27.4467 16.9967 28.4444 18.2222 28.4444C19.4478 28.4444 20.4444 27.4467 20.4444 26.2222V8.44444C20.4444 7.63111 20.68 6.87889 21.0622 6.22222H10.4422ZM27.1111 8.44444C27.1111 7.22 26.1145 6.22222 24.8889 6.22222C23.6633 6.22222 22.6667 7.22 22.6667 8.44444V10.6667H27.1111V8.66667C27.1111 8.62778 27.13 8.59444 27.1333 8.55556C27.13 8.51778 27.1111 8.48444 27.1111 8.44444Z" fill="url(#paint0_linear_42_11512)"/>
</g>
<defs>
<linearGradient id="paint0_linear_42_11512" x1="27.948" y1="28.8238" x2="2.64196" y2="4.02519" gradientUnits="userSpaceOnUse">
<stop offset="0.0260417" stop-color="#FA7250"/>
<stop offset="0.401042" stop-color="#FF1893"/>
<stop offset="0.994792" stop-color="#A78AFF"/>
</linearGradient>
</defs>
</svg>
