<svg width="24" height="24" viewBox="0 0 24 24" fill="none" xmlns="http://www.w3.org/2000/svg">
<path fill-rule="evenodd" clip-rule="evenodd" d="M20.483 20.486C18.2168 22.752 15.2029 24 11.9958 24C8.78978 24 5.77591 22.752 3.50872 20.485C-1.16957 15.806 -1.16957 8.193 3.50872 3.515C5.77591 1.248 8.78978 0 11.9958 0C15.2029 0 18.2168 1.248 20.483 3.515C22.7512 5.781 24 8.795 24 12C24 15.205 22.7512 18.219 20.483 20.486ZM19.0691 4.929C17.1803 3.04 14.6686 2 11.9958 2C9.32412 2 6.8124 3.04 4.92357 4.929C1.02416 8.828 1.02416 15.172 4.92357 19.071C6.8124 20.96 9.32412 22 11.9958 22C14.6686 22 17.1803 20.96 19.0691 19.071C20.959 17.183 21.9995 14.671 21.9995 12C21.9995 9.329 20.959 6.818 19.0691 4.929ZM13.9974 19H9.99633C9.44488 19 8.99607 18.552 8.99607 18C8.99607 17.448 9.44488 17 9.99633 17H10.9966V13H9.99633C9.44488 13 8.99607 12.552 8.99607 12C8.99607 11.448 9.44488 11 9.99633 11H11.9969C12.5493 11 12.9971 11.448 12.9971 12V17H13.9974C14.5498 17 14.9976 17.448 14.9976 18C14.9976 18.552 14.5498 19 13.9974 19ZM11.9969 9C10.894 9 9.99633 8.102 9.99633 6.999C9.99633 5.897 10.894 5 11.9969 5C13.1008 5 13.9974 5.897 13.9974 6.999C13.9974 8.102 13.1008 9 11.9969 9Z" fill="#495057"/>
</svg>
