<svg width="24" height="24" viewBox="0 0 24 24" fill="none" xmlns="http://www.w3.org/2000/svg">
<g clip-path="url(#clip0_3118_67463)">
<path d="M12 24C18.6274 24 24 18.6274 24 12C24 5.37258 18.6274 0 12 0C5.37258 0 7.23761e-08 5.37258 1.61657e-07 12C2.50937e-07 18.6274 5.37258 24 12 24Z" fill="black"/>
<path d="M17.4434 14.7644L15.6275 16.6616C15.588 16.7028 15.5402 16.7357 15.4872 16.7582C15.4341 16.7806 15.3768 16.7922 15.319 16.7922H6.71081C6.66974 16.7922 6.62956 16.7805 6.59521 16.7585C6.56086 16.7366 6.53384 16.7053 6.51747 16.6686C6.5011 16.632 6.49609 16.5914 6.50305 16.552C6.51002 16.5125 6.52866 16.4759 6.55668 16.4467L8.37393 14.5495C8.4133 14.5084 8.46091 14.4756 8.5138 14.4531C8.56671 14.4307 8.62378 14.419 8.68149 14.4189H17.2892C17.3303 14.4189 17.3704 14.4306 17.4048 14.4526C17.4391 14.4745 17.4661 14.5058 17.4826 14.5425C17.4989 14.5792 17.5039 14.6197 17.4969 14.6591C17.49 14.6986 17.4713 14.7352 17.4434 14.7644ZM15.6275 10.944C15.588 10.9028 15.5402 10.8699 15.4872 10.8475C15.4341 10.825 15.3768 10.8134 15.319 10.8135H6.71081C6.66974 10.8135 6.62956 10.8252 6.59521 10.8471C6.56086 10.8691 6.53384 10.9003 6.51747 10.937C6.5011 10.9737 6.49609 11.0142 6.50305 11.0537C6.51002 11.0931 6.52866 11.1297 6.55668 11.159L8.37393 13.0562C8.4133 13.0973 8.46091 13.1301 8.5138 13.1525C8.56671 13.175 8.62378 13.1866 8.68149 13.1867H17.2892C17.3303 13.1867 17.3704 13.175 17.4048 13.1531C17.4391 13.1311 17.4661 13.0999 17.4826 13.0632C17.4989 13.0265 17.5039 12.9859 17.4969 12.9465C17.49 12.9071 17.4713 12.8705 17.4434 12.8412L15.6275 10.944ZM6.71081 9.58123H15.319C15.3768 9.58125 15.4341 9.56968 15.4872 9.54723C15.5402 9.52477 15.588 9.49191 15.6275 9.4507L17.4434 7.55349C17.4713 7.52424 17.49 7.48765 17.4969 7.44821C17.5039 7.40878 17.4989 7.36822 17.4826 7.33152C17.4661 7.29482 17.4391 7.26358 17.4048 7.24164C17.3704 7.2197 17.3303 7.20801 17.2892 7.20801H8.68149C8.62378 7.2081 8.56671 7.21974 8.5138 7.24219C8.46091 7.26464 8.4133 7.29743 8.37393 7.33854L6.55715 9.23574C6.52915 9.26496 6.51052 9.30152 6.50354 9.34091C6.49656 9.3803 6.50153 9.42082 6.51785 9.45751C6.53416 9.49419 6.56111 9.52542 6.59538 9.5474C6.62966 9.56938 6.66978 9.58113 6.71081 9.58123Z" fill="#66FFF6"/>
</g>
<defs>
<clipPath id="clip0_3118_67463">
<rect width="24" height="24" fill="white"/>
</clipPath>
</defs>
</svg>
